#!OML:ASF F:\VICON\USERDATA\INSTALL\Justin_Nancy\Justin_Nancy.ASF
:FULLY-SPECIFIED
:DEGREES
379
root -5.60306 17.2959 8.43137 246.039 -83.5247 -244.086
lowerback 6.44528 -1.80956 -7.58849
upperback 0.00697001 -2.94512 1.20667
thorax -3.1673 -1.34298 5.78535
lowerneck -15.9128 -3.50335 -9.25031
upperneck 24.2417 -4.09475 4.88571
head 10.7266 -2.28472 2.71757
rclavicle -6.31141e-015 -8.74653e-015
rhumerus -35.3202 -16.4263 -78.4556
rradius 30.5412
rwrist 10.0416
rhand -14.0572 11.9181
rfingers 7.12502
rthumb 12.074 -17.7136
lclavicle -6.31141e-015 -8.74653e-015
lhumerus -24.4281 11.6083 85.6135
lradius 27.3528
lwrist -12.9197
lhand -15.1369 24.2803
lfingers 7.12502
lthumb 11.0327 53.9704
rfemur -28.674 3.20742 17.1364
rtibia 23.3326
rfoot 2.10538 -3.81349
rtoes 33.7846
lfemur 11.5493 -0.227 -29.2659
ltibia 16.9017
lfoot -9.79053 -11.0821
ltoes -1.02545
380
root -5.77203 17.3215 8.40893 246.146 -83.5846 -244.075
lowerback 6.14642 -1.64952 -7.6198
upperback -0.0448631 -2.71116 1.18821
thorax -3.08911 -1.22756 5.75384
lowerneck -15.7601 -3.65646 -9.04296
upperneck 24.3068 -4.3605 4.75958
head 10.7345 -2.40692 2.60027
rclavicle 2.26118e-014 -2.46493e-014
rhumerus -35.484 -16.9343 -78.1284
rradius 30.3226
rwrist 10.5654
rhand -14.032 11.9489
rfingers 7.12502
rthumb 12.0983 -17.6813
lclavicle 2.26118e-014 -2.46493e-014
lhumerus -25.012 8.22227 86.0766
lradius 27.8998
lwrist -10.3451
lhand -14.4544 25.0133
lfingers 7.12502
lthumb 11.6909 54.6671
rfemur -28.4374 3.54627 17.2918
rtibia 23.6393
rfoot 1.98679 -5.77981
rtoes 29.77
lfemur 11.1409 -0.642454 -29.1684
ltibia 18.2266
lfoot -8.52194 -11.3561
ltoes -1.66831
381
root -5.94116 17.3496 8.38279 246.058 -83.8388 -243.981
lowerback 5.89926 -1.67314 -7.66911
upperback -0.023115 -2.7159 1.45945
thorax -2.9112 -1.23609 6.05624
lowerneck -15.8443 -3.62861 -9.22387
upperneck 24.5644 -4.22401 4.54975
head 10.8368 -2.39233 2.57501
rclavicle 4.72114e-015 -3.49861e-014
rhumerus -35.2361 -16.578 -77.8926
rradius 29.7586
rwrist 10.994
rhand -14.819 12.1189
rfingers 7.12502
rthumb 11.3393 -17.5546
lclavicle 4.72114e-015 -3.49861e-014
lhumerus -25.388 7.30961 86.2539
lradius 27.7373
lwrist -8.65866
lhand -13.5084 24.8281
lfingers 7.12502
lthumb 12.6031 54.4279
rfemur -28.0558 3.8283 17.6365
rtibia 24.0229
rfoot 1.64693 -7.21254
rtoes 28.6374
lfemur 10.6172 -1.16351 -28.8911
ltibia 19.958
lfoot -7.21629 -11.5741
ltoes -3.28534
382
root -6.10668 17.3791 8.36792 246.984 -84.199 -244.936
lowerback 5.79601 -1.98447 -7.61637
upperback -0.0365023 -3.10601 1.92158
thorax -2.78159 -1.43497 6.5356
lowerneck -15.8937 -3.35708 -9.87373
upperneck 24.5624 -3.61763 4.42793
head 10.8123 -2.19122 2.72661
rclavicle -3.26007e-014 2.38542e-015
rhumerus -34.7549 -15.5374 -77.6228
rradius 29.2212
rwrist 10.7299
rhand -15.0553 11.9246
rfingers 7.12502
rthumb 11.1114 -17.7612
lclavicle -3.26007e-014 2.38542e-015
lhumerus -25.6045 9.56108 86.0158
lradius 26.8412
lwrist -8.71075
lhand -16.235 26.5189
lfingers 7.12502
lthumb 9.97345 56.2626
rfemur -27.5674 4.14795 17.9022
rtibia 24.4489
rfoot 0.947097 -7.28115
rtoes 30.387
lfemur 9.89043 -1.6484 -28.5165
ltibia 21.9927
lfoot -5.82049 -12.0568
ltoes -5.15968
383
root -6.27032 17.4032 8.3568 248.579 -84.2047 -246.448
lowerback 5.53825 -1.77219 -7.4794
upperback -0.0620356 -2.80115 1.65368
thorax -2.73412 -1.28671 6.14331
lowerneck -15.732 -3.47415 -9.43763
upperneck 24.578 -3.94788 4.50803
head 10.8028 -2.29448 2.63677
rclavicle 4.57205e-015 1.90833e-014
rhumerus -34.9822 -16.4848 -77.3909
rradius 29.016
rwrist 10.3037
rhand -15.0525 11.698
rfingers 7.12502
rthumb 11.1141 -17.9877
lclavicle 4.57205e-015 1.90833e-014
lhumerus -25.3066 12.5704 85.469
lradius 25.2212
lwrist -10.9785
lhand -16.241 25.4155
lfingers 7.12502
lthumb 9.96763 55.1595
rfemur -27.2011 4.41805 17.8389
rtibia 24.8592
rfoot 0.505689 -6.68108
rtoes 30.3037
lfemur 8.90677 -2.01285 -28.4346
ltibia 24.1236
lfoot -3.61171 -12.8118
ltoes -3.51448
384
root -6.42875 17.4251 8.33391 249.201 -84.1954 -247.033
lowerback 5.40999 -1.78094 -7.5383
upperback -0.115886 -2.80859 1.61913
thorax -2.7161 -1.28862 6.13623
lowerneck -15.8015 -3.47635 -9.75714
upperneck 24.872 -3.9698 4.84693
head 10.9416 -2.30274 2.81364
rclavicle 5.2181e-015 -6.36111e-015
rhumerus -34.9297 -16.2729 -77.3828
rradius 28.6098
rwrist 10.0026
rhand -14.7317 11.9187
rfingers 7.12502
rthumb 11.4236 -17.7501
lclavicle 5.2181e-015 -6.36111e-015
lhumerus -25.4262 17.1592 84.6222
lradius 23.8928
lwrist -14.4821
lhand -16.0095 24.756
lfingers 7.12502
lthumb 10.191 54.4892
rfemur -26.7872 4.61781 17.9062
rtibia 25.1922
rfoot 0.0552442 -6.5928
rtoes 29.649
lfemur 7.8033 -2.09952 -28.2204
ltibia 26.3215
lfoot -1.02791 -13.5581
ltoes -3.14268
385
root -6.5857 17.4493 8.30577 248.778 -84.2275 -246.713
lowerback 5.39578 -1.98428 -7.69953
upperback -0.101093 -3.08203 1.86648
thorax -2.62695 -1.42666 6.50419
lowerneck -15.9075 -3.36611 -10.6383
upperneck 25.0341 -3.65527 5.17226
head 11.0239 -2.20884 3.12877
rclavicle 4.96962e-015 -6.36111e-015
rhumerus -34.5341 -15.4475 -77.308
rradius 28.15
rwrist 9.89247
rhand -13.6265 11.9304
rfingers 7.12502
rthumb 12.4892 -17.6764
lclavicle 4.96962e-015 -6.36111e-015
lhumerus -26.0212 18.7445 84.3176
lradius 23.6704
lwrist -14.9309
lhand -15.6246 24.8596
lfingers 7.12502
lthumb 10.5623 54.5742
rfemur -26.1395 5.03448 18.0457
rtibia 25.3793
rfoot -0.646331 -7.24625
rtoes 29.1767
lfemur 6.73788 -1.73125 -27.8013
ltibia 28.5624
lfoot 1.83393 -14.5285
ltoes -4.547
386
root -6.73508 17.4781 8.29211 249.111 -84.5473 -247.265
lowerback 5.5998 -1.68613 -7.12333
upperback -0.0388953 -2.67069 1.53795
thorax -2.78647 -1.22556 5.8131
lowerneck -15.7462 -3.58036 -9.6412
upperneck 25.047 -4.19416 4.92495
head 11.0133 -2.3914 2.79229
rclavicle -2.28602e-014 -2.3059e-014
rhumerus -34.7354 -16.616 -77.242
rradius 27.9481
rwrist 9.9195
rhand -13.5103 11.8861
rfingers 7.12502
rthumb 12.6012 -17.7139
lclavicle -2.28602e-014 -2.3059e-014
lhumerus -26.2106 17.1044 84.0439
lradius 23.4257
lwrist -14.5249
lhand -15.1262 24.7855
lfingers 7.12502
lthumb 11.0431 54.475
rfemur -25.224 5.27678 18.41
rtibia 25.2855
rfoot -1.16141 -7.60823
rtoes 28.8794
lfemur 5.69767 -1.42447 -27.1292
ltibia 30.8463
lfoot 5.02858 -15.3552
ltoes -5.79464
387
root -6.87314 17.5059 8.29786 249.164 -85.3764 -247.648
lowerback 6.09518 -1.91652 -6.22776
upperback 0.0218179 -2.94227 1.841
thorax -2.98765 -1.36676 5.66437
lowerneck -15.8106 -3.39496 -9.57639
upperneck 25.0192 -3.85491 4.6297
head 10.98 -2.26453 2.72155
rclavicle 3.0911e-014 -9.54166e-015
rhumerus -34.3892 -15.9058 -77.2798
rradius 27.6131
rwrist 10.1657
rhand -14.4931 11.6063
rfingers 7.12502
rthumb 11.6536 -18.0496
lclavicle 3.0911e-014 -9.54166e-015
lhumerus -26.7107 18.5985 83.4072
lradius 23.079
lwrist -15.7053
lhand -14.0993 24.2682
lfingers 7.12502
lthumb 12.0333 53.9023
rfemur -24.052 4.80001 19.3837
rtibia 24.9467
rfoot -1.44528 -7.0758
rtoes 29.1904
lfemur 4.69726 -1.28895 -25.9882
ltibia 33.1236
lfoot 8.46977 -15.9534
ltoes -6.27519
388
root -7.04625 17.5313 8.30108 242.216 -86.0805 -241.013
lowerback 5.99479 -1.63479 -5.06897
upperback 0.246898 -2.48045 1.78743
thorax -2.81275 -1.16564 4.90706
lowerneck -15.7781 -3.56132 -8.95888
upperneck 24.9113 -4.24832 4.59567
head 10.9474 -2.38478 2.54743
rclavicle 1.86858e-014 1.03368e-014
rhumerus -34.6231 -17.8525 -76.7962
rradius 27.4099
rwrist 12.3642
rhand -14.2399 11.3772
rfingers 7.12502
rthumb 11.8978 -18.2647
lclavicle 1.86858e-014 1.03368e-014
lhumerus -26.7767 18.3257 82.9085
lradius 22.5924
lwrist -16.8436
lhand -12.8776 24.1123
lfingers 7.12502
lthumb 13.2112 53.6737
rfemur -22.7941 4.63913 20.4404
rtibia 24.4563
rfoot -1.71319 -6.55062
rtoes 29.3946
lfemur 3.73218 -1.11021 -25.0194
ltibia 35.425
lfoot 11.1801 -16.332
ltoes -8.6525
